<?xml version="1.0" encoding="UTF-8"?> <svg xmlns="http://www.w3.org/2000/svg" width="565" height="465" viewBox="0 0 565 465" fill="none"><g opacity="0.4"><path opacity="0.4" d="M508.864 341.879C520.873 341.879 530.607 332.14 530.607 320.126C530.607 308.111 520.873 298.372 508.864 298.372C496.856 298.372 487.121 308.111 487.121 320.126C487.121 332.14 496.856 341.879 508.864 341.879Z" fill="#24326E"></path><path d="M511.056 313.331C510.402 311.87 509.326 310.994 507.729 310.744C507.308 310.681 506.875 310.671 506.454 310.671C504.769 310.66 503.094 310.671 501.408 310.66C500.61 310.66 500 310.087 500 309.346C499.989 308.584 500.599 308 501.42 308C506.144 308 510.868 308 515.581 308C516.401 308 517 308.584 517 309.346C516.989 310.076 516.39 310.65 515.592 310.66C514.671 310.671 513.74 310.66 512.853 310.66C513.274 311.537 513.695 312.392 514.15 313.331C514.538 313.331 515.037 313.331 515.536 313.331C516.39 313.341 517 313.905 517 314.677C516.989 315.428 516.379 315.981 515.547 315.991C515.048 315.991 514.549 315.991 514.084 315.991C512.697 320.331 509.415 321.708 504.824 321.27C505.035 321.489 505.134 321.594 505.245 321.698C508.04 324.327 510.834 326.956 513.629 329.595C514.294 330.221 514.35 330.983 513.806 331.557C513.285 332.089 512.453 332.151 511.855 331.692C511.755 331.609 511.655 331.526 511.566 331.432C507.907 327.989 504.236 324.546 500.588 321.082C500.333 320.843 500.1 320.498 500.033 320.175C499.867 319.372 500.544 318.662 501.42 318.662C503.238 318.652 505.046 318.662 506.864 318.662C508.517 318.652 509.825 318.036 510.712 316.69C510.801 316.565 510.857 316.419 510.934 316.283C510.967 316.21 511.001 316.127 511.045 316.002C510.845 316.002 510.69 316.002 510.535 316.002C507.496 316.002 504.458 316.002 501.42 316.002C500.721 316.002 500.122 315.522 500.022 314.896C499.911 314.218 500.333 313.581 501.043 313.394C501.22 313.341 501.42 313.341 501.608 313.341C504.569 313.341 507.541 313.341 510.502 313.341C510.657 313.331 510.812 313.331 511.056 313.331Z" fill="white"></path><path opacity="0.4" d="M327.563 112.161C348.308 112.161 365.126 95.3356 365.126 74.5805C365.126 53.8254 348.308 37 327.563 37C306.817 37 290 53.8254 290 74.5805C290 95.3356 306.817 112.161 327.563 112.161Z" fill="#7083D4"></path><path d="M332.161 62.9957C330.968 60.2572 329.007 58.614 326.095 58.1446C325.326 58.0272 324.538 58.0077 323.769 58.0077C320.696 57.9881 317.642 58.0076 314.568 57.9881C313.112 57.9881 312 56.9122 312 55.5234C311.98 54.0954 313.092 53 314.589 53C323.203 53 331.817 53 340.412 53C341.908 53 343 54.0954 343 55.5234C342.98 56.8927 341.888 57.9685 340.432 57.9881C338.753 58.0076 337.055 57.9881 335.437 57.9881C336.206 59.6312 336.974 61.2352 337.803 62.9957C338.511 62.9957 339.421 62.9957 340.331 62.9957C341.888 63.0153 343 64.0716 343 65.5191C342.98 66.9275 341.868 67.9643 340.351 67.9838C339.441 67.9838 338.531 67.9838 337.682 67.9838C335.154 76.1213 329.168 78.7033 320.797 77.8818C321.181 78.2925 321.363 78.4882 321.565 78.6838C326.661 83.6132 331.757 88.5426 336.853 93.4915C338.066 94.6652 338.167 96.0932 337.176 97.169C336.226 98.1666 334.709 98.284 333.617 97.4233C333.435 97.2668 333.253 97.1103 333.091 96.9343C326.418 90.4791 319.725 84.0239 313.072 77.5297C312.607 77.0797 312.182 76.4342 312.061 75.8278C311.758 74.3216 312.991 72.9915 314.589 72.9915C317.905 72.9719 321.201 72.9915 324.517 72.9915C327.53 72.9719 329.917 71.8178 331.534 69.2944C331.696 69.0597 331.797 68.7858 331.939 68.5315C331.999 68.3946 332.06 68.2381 332.141 68.0034C331.777 68.0034 331.494 68.0034 331.211 68.0034C325.67 68.0034 320.129 68.0034 314.589 68.0034C313.315 68.0034 312.223 67.1036 312.041 65.9299C311.838 64.6584 312.607 63.4652 313.901 63.1131C314.225 63.0153 314.589 63.0153 314.932 63.0153C320.332 63.0153 325.751 63.0153 331.15 63.0153C331.433 62.9957 331.716 62.9957 332.161 62.9957Z" fill="#24326E"></path><path opacity="0.4" d="M55.3431 207.713C70.9966 207.713 83.6862 195.017 83.6862 179.356C83.6862 163.696 70.9966 151 55.3431 151C39.6896 151 27 163.696 27 179.356C27 195.017 39.6896 207.713 55.3431 207.713Z" fill="#24326E"></path><path d="M58.9583 171.33C58.0731 169.322 56.6178 168.117 54.4574 167.773C53.8873 167.687 53.3021 167.672 52.732 167.672C50.4515 167.658 48.1861 167.672 45.9056 167.658C44.8254 167.658 44.0002 166.869 44.0002 165.85C43.9852 164.803 44.8104 164 45.9206 164C52.3119 164 58.7033 164 65.0796 164C66.1898 164 67 164.803 67 165.85C66.985 166.855 66.1748 167.644 65.0946 167.658C63.8493 167.672 62.5891 167.658 61.3888 167.658C61.9589 168.863 62.5291 170.039 63.1442 171.33C63.6693 171.33 64.3444 171.33 65.0196 171.33C66.1748 171.345 67 172.119 67 173.181C66.985 174.214 66.1598 174.974 65.0346 174.988C64.3594 174.988 63.6843 174.988 63.0542 174.988C61.1788 180.956 56.7379 182.849 50.5266 182.247C50.8116 182.548 50.9466 182.691 51.0967 182.835C54.8775 186.45 58.6583 190.065 62.439 193.694C63.3392 194.554 63.4143 195.602 62.6791 196.391C61.974 197.122 60.8487 197.208 60.0385 196.577C59.9035 196.462 59.7685 196.348 59.6485 196.218C54.6974 191.485 49.7314 186.751 44.7954 181.988C44.4503 181.658 44.1352 181.185 44.0452 180.74C43.8202 179.636 44.7354 178.66 45.9206 178.66C48.3811 178.646 50.8266 178.66 53.2871 178.66C55.5226 178.646 57.293 177.8 58.4932 175.949C58.6133 175.777 58.6883 175.576 58.7933 175.39C58.8383 175.289 58.8833 175.175 58.9433 175.002C58.6733 175.002 58.4632 175.002 58.2532 175.002C54.1423 175.002 50.0315 175.002 45.9206 175.002C44.9754 175.002 44.1652 174.343 44.0302 173.482C43.8802 172.55 44.4503 171.674 45.4105 171.416C45.6505 171.345 45.9206 171.345 46.1757 171.345C50.1815 171.345 54.2023 171.345 58.2082 171.345C58.4182 171.33 58.6283 171.33 58.9583 171.33Z" fill="white"></path><path opacity="0.4" d="M111.112 275.083C119.884 275.083 126.995 267.968 126.995 259.192C126.995 250.415 119.884 243.301 111.112 243.301C102.34 243.301 95.2285 250.415 95.2285 259.192C95.2285 267.968 102.34 275.083 111.112 275.083Z" fill="#7083D4"></path><path fill-rule="evenodd" clip-rule="evenodd" d="M115.213 265.836H116.651C117.218 265.836 117.691 266.31 117.691 266.877C117.691 267.444 117.218 267.917 116.651 267.917H116.42H114.1H110.527H107.247H105.816C105.814 267.917 105.812 267.917 105.81 267.917V267.917C105.243 267.917 104.77 267.444 104.77 266.877C104.77 266.306 105.243 265.841 105.81 265.836C105.812 265.836 105.814 265.836 105.815 265.836C105.831 265.832 105.847 265.828 105.863 265.823C105.903 265.801 105.941 265.778 105.979 265.753C106.057 265.683 106.13 265.608 106.198 265.529C106.319 265.356 106.422 265.172 106.51 264.98C106.632 264.663 106.717 264.334 106.772 263.999C106.815 263.585 106.811 263.164 106.807 262.746C106.806 262.622 106.804 262.499 106.804 262.376V261.362H105.83C105.263 261.362 104.79 260.889 104.79 260.322C104.79 259.755 105.263 259.281 105.83 259.281H106.804V258.959V256.087C106.804 255.675 106.827 255.274 106.888 254.864C107.035 253.882 107.501 252.976 108.136 252.222C108.767 251.474 109.623 250.926 110.547 250.614C111.024 250.452 111.536 250.368 112.039 250.346C112.607 250.321 113.196 250.39 113.742 250.549C114.278 250.705 114.81 250.94 115.27 251.259C115.53 251.44 115.785 251.636 116.015 251.855C116.246 252.077 116.443 252.322 116.638 252.576C117.331 253.483 117.687 254.648 117.691 255.784C117.693 256.351 117.216 256.825 116.651 256.825C116.082 256.825 115.612 256.351 115.61 255.784C115.61 255.633 115.602 255.483 115.587 255.333C115.537 255.04 115.459 254.753 115.353 254.475C115.231 254.212 115.085 253.962 114.915 253.727C114.732 253.504 114.527 253.3 114.305 253.117C114.07 252.947 113.82 252.801 113.557 252.679C113.279 252.573 112.993 252.495 112.699 252.445C112.398 252.415 112.096 252.415 111.795 252.445C111.502 252.495 111.216 252.573 110.939 252.679C110.676 252.8 110.425 252.947 110.19 253.117C109.968 253.3 109.764 253.504 109.581 253.726C109.411 253.962 109.264 254.212 109.142 254.476C109.036 254.754 108.958 255.041 108.908 255.334C108.894 255.475 108.886 255.616 108.885 255.758C108.884 256.182 108.885 256.605 108.885 257.029C108.885 257.237 108.885 257.444 108.885 257.651V259.281H111.107H113.066C113.633 259.281 114.107 259.755 114.107 260.322C114.107 260.889 113.633 261.362 113.066 261.362H111.353H108.885V263.406C108.885 264.235 108.728 265.074 108.398 265.836H111.934H115.213Z" fill="#24326E"></path><path opacity="0.4" d="M501.596 198.148C512.707 198.148 521.714 189.137 521.714 178.021C521.714 166.905 512.707 157.894 501.596 157.894C490.486 157.894 481.479 166.905 481.479 178.021C481.479 189.137 490.486 198.148 501.596 198.148Z" fill="#7083D4"></path><path d="M504.406 172.109C503.79 170.709 502.778 169.869 501.275 169.629C500.878 169.569 500.471 169.559 500.074 169.559C498.488 169.549 496.912 169.559 495.326 169.549C494.574 169.549 494 169 494 168.29C493.99 167.56 494.564 167 495.336 167C499.782 167 504.228 167 508.664 167C509.436 167 510 167.56 510 168.29C509.99 168.99 509.426 169.539 508.675 169.549C507.808 169.559 506.932 169.549 506.097 169.549C506.493 170.389 506.89 171.209 507.318 172.109C507.683 172.109 508.153 172.109 508.622 172.109C509.426 172.119 510 172.659 510 173.399C509.99 174.119 509.416 174.648 508.633 174.658C508.163 174.658 507.693 174.658 507.255 174.658C505.95 178.818 502.861 180.137 498.54 179.717C498.739 179.927 498.832 180.027 498.937 180.127C501.567 182.647 504.197 185.166 506.827 187.696C507.453 188.296 507.506 189.025 506.994 189.575C506.504 190.085 505.721 190.145 505.157 189.705C505.063 189.625 504.969 189.545 504.886 189.455C501.442 186.156 497.987 182.857 494.553 179.537C494.313 179.307 494.094 178.977 494.031 178.668C493.875 177.898 494.512 177.218 495.336 177.218C497.048 177.208 498.749 177.218 500.461 177.218C502.016 177.208 503.247 176.618 504.082 175.328C504.166 175.208 504.218 175.068 504.291 174.938C504.322 174.868 504.354 174.788 504.395 174.668C504.207 174.668 504.061 174.668 503.915 174.668C501.056 174.668 498.196 174.668 495.336 174.668C494.679 174.668 494.115 174.208 494.021 173.609C493.917 172.959 494.313 172.349 494.981 172.169C495.148 172.119 495.336 172.119 495.513 172.119C498.3 172.119 501.097 172.119 503.884 172.119C504.03 172.109 504.176 172.109 504.406 172.109Z" fill="#24326E"></path></g><path d="M279.887 411.087C395.603 424.981 504.665 411.087 506.69 381.018C506.69 369.332 410.587 359.858 292.038 359.858C173.488 359.858 73.9141 369.332 73.9141 381.018C73.9141 392.704 180.951 399.208 279.887 411.087Z" fill="#262F63"></path><rect x="41.9395" y="310.593" width="8.14904" height="57.8152" stroke="white"></rect><rect x="56.3164" y="332.813" width="8.14904" height="35.5962" stroke="white"></rect><rect x="70.6934" y="301.442" width="8.14904" height="66.9643" stroke="white"></rect><rect x="85.0703" y="287.064" width="8.14904" height="81.3413" stroke="white"></rect><path d="M277.277 372.62C277.277 372.62 265.367 377.641 238.595 379.752C223.939 380.894 204.824 381.155 180.767 379.226C112.773 384.685 84.2576 372.62 84.2576 372.62C31.5192 318.768 93.0473 203.384 115.022 175.902C125.18 163.207 140.023 158.024 153.055 156.114C162.245 154.796 171.575 154.788 180.767 156.089C189.961 154.788 199.293 154.796 208.485 156.114C215.415 157.128 222.861 159.067 229.834 162.582C236.295 165.756 241.986 170.302 246.508 175.902C268.488 203.384 330.016 318.768 277.277 372.62Z" fill="url(#paint0_linear_2914_136)"></path><path d="M233.141 88.0737C233.141 88.0737 227.683 61.9559 182.535 84.6589C137.386 107.362 222.915 102.22 222.915 102.22C222.915 102.22 233.697 95.6983 233.141 88.0737Z" fill="#E8A341"></path><path d="M144.777 129.132C144.777 129.132 114.507 95.6464 131.026 80.7898C143.983 69.1487 181.488 84.2368 197.07 91.2638C203.786 94.3333 211.08 95.9382 218.466 95.9714C225.727 95.9714 233.022 94.5286 233.16 88.7573C233.16 88.7573 233.653 114.26 214.826 129.137C195.999 144.013 144.777 129.132 144.777 129.132Z" fill="url(#paint1_linear_2914_136)"></path><path d="M179.629 134.764C179.629 134.764 202.286 127.076 209.243 111.83C209.243 111.83 208.964 126.52 198.112 132.34C187.259 138.161 179.629 134.764 179.629 134.764Z" fill="#E8A341"></path><path d="M215.264 128.919H145.134C141.539 128.919 138.625 131.76 138.625 135.264V136.242C138.625 139.746 141.539 142.587 145.134 142.587H215.264C218.859 142.587 221.773 139.746 221.773 136.242V135.264C221.773 131.76 218.859 128.919 215.264 128.919Z" fill="#262F63"></path><path d="M122.678 363.556C122.678 363.556 183.945 396.872 238.857 363.556C238.857 363.556 181.214 373.606 122.678 363.556Z" fill="#E8A341"></path><path d="M145.457 102.72C145.457 102.72 149.556 125.507 165.959 128.917C165.959 128.917 147.921 112.819 145.457 102.72Z" fill="#E8A341"></path><path d="M94.9822 267.877C94.9822 267.877 87.4444 312.909 119.261 324.828C119.261 324.828 93.3066 292.485 94.9822 267.877Z" fill="#E8A341"></path><path opacity="0.34" d="M175.642 275.852C197.974 275.852 216.077 257.749 216.077 235.417C216.077 213.086 197.974 194.982 175.642 194.982C153.31 194.982 135.207 213.086 135.207 235.417C135.207 257.749 153.31 275.852 175.642 275.852Z" fill="#0A0A0A"></path><path d="M215.267 142.582H145.131C141.538 142.582 138.625 145.387 138.625 148.847C138.625 152.306 141.538 155.111 145.131 155.111H215.267C218.86 155.111 221.773 152.306 221.773 148.847C221.773 145.387 218.86 142.582 215.267 142.582Z" fill="#262F63"></path><path d="M181.004 271.009C203.651 271.009 222.009 252.651 222.009 230.004C222.009 207.358 203.651 189 181.004 189C158.358 189 140 207.358 140 230.004C140 252.651 158.358 271.009 181.004 271.009Z" fill="#EBF2FC"></path><path d="M185.763 217.884C184.416 214.902 182.201 213.113 178.913 212.602C178.046 212.474 177.155 212.453 176.288 212.453C172.818 212.431 169.37 212.453 165.9 212.431C164.256 212.431 163 211.26 163 209.748C162.977 208.193 164.233 207 165.923 207C175.649 207 185.375 207 195.078 207C196.767 207 198 208.193 198 209.748C197.977 211.239 196.744 212.41 195.1 212.431C193.206 212.453 191.288 212.431 189.461 212.431C190.329 214.221 191.196 215.967 192.132 217.884C192.932 217.884 193.959 217.884 194.986 217.884C196.744 217.906 198 219.056 198 220.632C197.977 222.166 196.721 223.294 195.009 223.316C193.982 223.316 192.954 223.316 191.995 223.316C189.142 232.176 182.384 234.988 172.932 234.093C173.366 234.541 173.571 234.754 173.799 234.967C179.553 240.334 185.306 245.702 191.059 251.091C192.429 252.369 192.543 253.924 191.425 255.095C190.352 256.181 188.639 256.309 187.406 255.372C187.201 255.202 186.996 255.031 186.813 254.84C179.279 247.811 171.722 240.782 164.21 233.71C163.685 233.22 163.206 232.517 163.069 231.857C162.726 230.217 164.119 228.768 165.923 228.768C169.667 228.747 173.388 228.768 177.133 228.768C180.534 228.747 183.228 227.491 185.055 224.743C185.238 224.487 185.352 224.189 185.512 223.912C185.58 223.763 185.649 223.593 185.74 223.337C185.329 223.337 185.009 223.337 184.69 223.337C178.434 223.337 172.178 223.337 165.923 223.337C164.484 223.337 163.251 222.357 163.046 221.079C162.818 219.695 163.685 218.395 165.146 218.012C165.512 217.906 165.923 217.906 166.311 217.906C172.407 217.906 178.525 217.906 184.621 217.906C184.941 217.884 185.26 217.884 185.763 217.884Z" fill="#262F63"></path><path opacity="0.4" d="M386.135 371.963H252.729C247.283 371.97 242.057 369.99 238.202 366.458C234.347 362.926 232.178 358.132 232.174 353.131V344.702L247.574 184.891C247.574 174.512 238.822 172.241 238.822 172.241L354.978 172.241C372.192 172.241 386.147 185.055 386.147 200.861L386.135 371.963Z" fill="black"></path><path d="M401.992 389.609H268.739C263.299 389.617 258.079 387.461 254.229 383.617C250.378 379.773 248.212 374.555 248.207 369.113V359.939L248.108 186.009C248.108 174.712 239.365 172.241 239.365 172.241H370.871C388.066 172.241 402.005 186.187 402.005 203.39L401.992 389.609Z" fill="url(#paint2_linear_2914_136)"></path><path d="M360.964 273.076H271.646V278.853H360.964V273.076Z" fill="#5982BE"></path><path d="M360.964 261.299H271.646V267.076H360.964V261.299Z" fill="#5982BE"></path><path d="M360.964 284.854H271.646V290.631H360.964V284.854Z" fill="#5982BE"></path><path d="M443.367 345.911H281.417C281.417 345.911 284.617 361.498 279.37 378.165C276.763 386.446 265.916 389.424 265.916 389.424L418.103 389.615C432.057 389.615 443.369 378.299 443.371 364.339L443.367 345.911Z" fill="#5982BE"></path><path d="M277.757 247.844H291.299V252.163H272.387V226.481H277.757V247.844ZM305.974 226.092C308.516 226.092 310.708 226.624 312.55 227.687C314.391 228.751 315.805 230.269 316.791 232.24C317.803 234.212 318.309 236.572 318.309 239.322C318.309 242.072 317.803 244.433 316.791 246.404C315.805 248.376 314.391 249.893 312.55 250.957C310.708 252.02 308.516 252.552 305.974 252.552C303.431 252.552 301.226 252.02 299.358 250.957C297.517 249.893 296.09 248.376 295.078 246.404C294.092 244.433 293.599 242.072 293.599 239.322C293.599 236.572 294.092 234.212 295.078 232.24C296.09 230.269 297.517 228.751 299.358 227.687C301.226 226.624 303.431 226.092 305.974 226.092ZM305.974 230.489C304.521 230.489 303.289 230.826 302.277 231.501C301.265 232.175 300.487 233.174 299.942 234.497C299.423 235.794 299.164 237.402 299.164 239.322C299.164 241.216 299.423 242.824 299.942 244.147C300.487 245.47 301.265 246.469 302.277 247.143C303.289 247.818 304.521 248.155 305.974 248.155C307.4 248.155 308.62 247.818 309.631 247.143C310.643 246.469 311.408 245.47 311.927 244.147C312.472 242.824 312.744 241.216 312.744 239.322C312.744 237.402 312.472 235.794 311.927 234.497C311.408 233.174 310.643 232.175 309.631 231.501C308.62 230.826 307.4 230.489 305.974 230.489ZM345.072 252.163H339.508L337.368 245.898H327.523L325.383 252.163H319.896L329.274 226.481H335.694L345.072 252.163ZM328.729 241.929H336.161L332.426 230.722L328.729 241.929ZM370.945 226.481V252.163H364.797L355.808 237.065L353.59 232.863H353.551L353.707 237.299V252.163H348.882V226.481H354.991L363.98 241.54L366.198 245.781H366.275L366.12 241.346V226.481H370.945Z" fill="#5982BE"></path><path d="M272.586 301.335L274.322 303.976L276.059 301.335H277.853L275.241 304.91L277.897 308.631H276.044L274.22 305.888L272.338 308.631H270.557L273.301 304.954L270.703 301.335H272.586ZM280.472 301.335L282.209 303.976L283.945 301.335H285.74L283.128 304.91L285.784 308.631H283.931L282.107 305.888L280.224 308.631H278.444L281.187 304.954L278.59 301.335H280.472ZM288.359 301.335L290.095 303.976L291.832 301.335H293.627L291.015 304.91L293.67 308.631H291.817L289.993 305.888L288.111 308.631H286.331L289.074 304.954L286.477 301.335H288.359ZM296.246 301.335L297.982 303.976L299.719 301.335H301.513L298.901 304.91L301.557 308.631H299.704L297.88 305.888L295.998 308.631H294.217L296.961 304.954L294.363 301.335H296.246ZM272.586 316.335L274.322 318.976L276.059 316.335H277.853L275.241 319.91L277.897 323.631H276.044L274.22 320.888L272.338 323.631H270.557L273.301 319.954L270.703 316.335H272.586ZM280.472 316.335L282.209 318.976L283.945 316.335H285.74L283.128 319.91L285.784 323.631H283.931L282.107 320.888L280.224 323.631H278.444L281.187 319.954L278.59 316.335H280.472ZM288.359 316.335L290.095 318.976L291.832 316.335H293.627L291.015 319.91L293.67 323.631H291.817L289.993 320.888L288.111 323.631H286.331L289.074 319.954L286.477 316.335H288.359Z" fill="#5982BE"></path><g opacity="0.2" filter="url(#filter0_d_2914_136)"><path d="M428.799 180.524C428.799 198.035 405.931 207.195 384.401 207.195C362.872 207.195 349.916 192.351 349.916 174.617C349.916 163.792 400.742 183.993 377.293 171.209C398.822 171.209 428.799 163.012 428.799 180.524Z" fill="black"></path></g><path d="M394.85 205.453C417.058 205.453 435.061 187.441 435.061 165.223C435.061 143.005 417.058 124.993 394.85 124.993C372.642 124.993 354.639 143.005 354.639 165.223C354.639 187.441 372.642 205.453 394.85 205.453Z" fill="white"></path><path d="M442.757 165.501C442.757 186.668 425.598 203.826 404.432 203.826C383.266 203.826 366.107 186.668 366.107 165.501C366.107 144.335 383.266 127.177 404.432 127.177C425.598 127.177 442.757 144.335 442.757 165.501Z" stroke="white" stroke-width="1.22254"></path><path d="M388.794 180.524C387.953 180.525 387.137 180.232 386.49 179.694L377.914 172.59C376.902 171.771 376.408 170.471 376.621 169.186C376.834 167.902 377.72 166.831 378.941 166.382C380.163 165.933 381.531 166.175 382.525 167.016L388.41 171.891L406.804 151.139C408.13 149.644 410.416 149.507 411.91 150.833C413.404 152.16 413.541 154.447 412.216 155.941L391.502 179.307C390.816 180.083 389.829 180.526 388.794 180.524Z" fill="#71BEB5"></path><rect x="91.7188" y="282" width="57.6245" height="107.598" rx="3.58659" fill="#3245A6"></rect><rect x="94.1074" y="284.392" width="52.8424" height="102.816" rx="3.58659" fill="url(#paint3_linear_2914_136)"></rect><rect x="98.8887" y="297.542" width="10.5207" height="10.5207" rx="1.67374" fill="#6070BF"></rect><rect x="98.8887" y="330.538" width="10.5207" height="10.5207" rx="1.67374" fill="#6070BF"></rect><rect x="98.8887" y="314.04" width="10.5207" height="10.5207" rx="1.67374" fill="#6070BF"></rect><rect x="98.8887" y="347.037" width="10.5207" height="10.5207" rx="1.67374" fill="#6070BF"></rect><rect x="115.387" y="297.542" width="10.5207" height="10.5207" rx="1.67374" fill="#6070BF"></rect><rect x="115.387" y="330.538" width="10.5207" height="10.5207" rx="1.67374" fill="#6070BF"></rect><rect x="115.387" y="314.04" width="10.5207" height="10.5207" rx="1.67374" fill="#6070BF"></rect><rect x="115.387" y="347.037" width="10.5207" height="10.5207" rx="1.67374" fill="#6070BF"></rect><rect x="131.885" y="297.542" width="10.5207" height="10.5207" rx="1.67374" fill="#6070BF"></rect><rect x="131.885" y="330.538" width="10.5207" height="10.5207" rx="1.67374" fill="#6070BF"></rect><rect x="131.885" y="314.04" width="10.5207" height="10.5207" rx="1.67374" fill="#6070BF"></rect><rect x="131.885" y="347.037" width="10.5207" height="10.5207" rx="1.67374" fill="#6070BF"></rect><path opacity="0.2" fill-rule="evenodd" clip-rule="evenodd" d="M146.95 310.421V287.977C146.95 285.996 145.344 284.391 143.363 284.391H97.694C95.7132 284.391 94.1074 285.996 94.1074 287.977V365.665L146.95 310.421Z" fill="#ECF3FC"></path><path d="M109.412 283.195H131.41V283.195C131.41 285.176 129.804 286.782 127.823 286.782H112.999C111.018 286.782 109.412 285.176 109.412 283.195V283.195Z" fill="#3245A6"></path><circle cx="126.148" cy="284.63" r="1.43464" fill="white"></circle><line x1="122.203" y1="284.749" x2="115.03" y2="284.749" stroke="white" stroke-width="1.19553" stroke-linecap="round"></line><rect x="91" y="294.673" width="1.91285" height="14.5855" rx="0.956424" fill="#3245A6"></rect><rect x="148.385" y="294.673" width="1.91285" height="5.73854" rx="0.956424" fill="#5EA599"></rect><rect x="148.385" y="300.411" width="1.91285" height="5.73854" rx="0.956424" fill="#5EA599"></rect><circle cx="120.409" cy="381.707" r="3.58659" fill="#5EA599"></circle><circle cx="117.181" cy="367.959" r="1.07598" fill="#5EA599"></circle><circle cx="120.41" cy="367.959" r="1.07598" fill="#5EA599"></circle><circle cx="123.637" cy="367.959" r="1.07598" fill="#5EA599"></circle><path opacity="0.2" d="M94.2285 375.133L146.951 317.747V323.486L94.2285 380.632V375.133Z" fill="#CED4F2"></path><rect x="116.822" y="366.883" width="3.58659" height="2.15195" fill="#5EA599"></rect><defs><filter id="filter0_d_2914_136" x="345.916" y="169.293" width="86.8828" height="45.9023" color-interpolation-filters="sRGB"><feFlood flood-opacity="0" result="BackgroundImageFix"></feFlood><feColorMatrix in="SourceAlpha" type="matrix" values="0 0 0 0 0 0 0 0 0 0 0 0 0 0 0 0 0 0 127 0" result="hardAlpha"></feColorMatrix><feOffset dy="4"></feOffset><feGaussianBlur stdDeviation="2"></feGaussianBlur><feComposite in2="hardAlpha" operator="out"></feComposite><feColorMatrix type="matrix" values="0 0 0 0 0 0 0 0 0 0 0 0 0 0 0 0 0 0 0.25 0"></feColorMatrix><feBlend mode="normal" in2="BackgroundImageFix" result="effect1_dropShadow_2914_136"></feBlend><feBlend mode="normal" in="SourceGraphic" in2="effect1_dropShadow_2914_136" result="shape"></feBlend></filter><linearGradient id="paint0_linear_2914_136" x1="180.767" y1="301.192" x2="126.456" y2="169.22" gradientUnits="userSpaceOnUse"><stop stop-color="#E9A342"></stop><stop offset="1" stop-color="#F3BF75"></stop></linearGradient><linearGradient id="paint1_linear_2914_136" x1="183.955" y1="116.366" x2="182.24" y2="97.1268" gradientUnits="userSpaceOnUse"><stop stop-color="#E8A341"></stop><stop offset="0.98" stop-color="#F3BF75"></stop></linearGradient><linearGradient id="paint2_linear_2914_136" x1="320.685" y1="172.241" x2="320.685" y2="389.609" gradientUnits="userSpaceOnUse"><stop stop-color="#F3FAFC"></stop><stop offset="1" stop-color="#DDE5FC"></stop></linearGradient><linearGradient id="paint3_linear_2914_136" x1="120.532" y1="290.438" x2="122.847" y2="431.433" gradientUnits="userSpaceOnUse"><stop stop-color="#DFE7FC"></stop><stop offset="0.98" stop-color="#F3FAFC"></stop></linearGradient></defs></svg> 